<?xml version="1.0" encoding="UTF-8"?>
<svg width="33px" height="33px" viewBox="0 0 33 33" version="1.1" xmlns="http://www.w3.org/2000/svg" xmlns:xlink="http://www.w3.org/1999/xlink">
    <!-- Generator: Sketch 54.1 (76490) - https://sketchapp.com -->
    <title>编组 6</title>
    <desc>Created with Sketch.</desc>
    <defs>
        <circle id="path-1" cx="23" cy="23" r="23"></circle>
    </defs>
    <g id="页面-1" stroke="none" stroke-width="1" fill="none" fill-rule="evenodd">
        <g id="个人中心-非会员" transform="translate(-288.000000, -386.000000)">
            <g id="编组-9" transform="translate(12.000000, 319.000000)">
                <g id="编组-6" transform="translate(269.000000, 60.000000)">
                    <g id="位图">
                        <mask id="mask-2" fill="white">
                            <use xlink:href="#path-1"></use>
                        </mask>
                        <g id="蒙版"></g>
                    </g>
                    <g id="优惠券" transform="translate(8.000000, 8.000000)" fill="#F53A71" fill-rule="nonzero" stroke="#FE2766" stroke-width="0.2">
                        <path d="M12.7577154,30.9999683 C11.9771864,31.0025709 11.2292621,30.6864256 10.6862812,30.1243796 L8.33139865,27.6906495 C7.9065545,27.2517089 7.91596671,26.5510014 8.3524468,26.1236854 C8.84214801,25.6448029 9.12175982,24.9903755 9.12964841,24.3046561 C9.13753701,23.6189368 8.87305478,22.9582204 8.39450056,22.4681461 C7.42926278,21.4771363 5.72840329,21.4571465 4.74428598,22.4226255 C4.5339322,22.629045 4.213958,22.7366662 3.95602263,22.7388826 C3.66138381,22.7352297 3.38040079,22.6137844 3.1754982,22.4015275 L0.82405995,19.9722728 C0.287384459,19.4218496 -0.00892825847,18.680117 0.000419691435,17.9105295 C0.00976764134,17.1409419 0.324009055,16.4066608 0.873895123,15.8694983 L16.2163707,0.800191232 C17.330136,-0.286249727 19.2322072,-0.261827208 20.3125932,0.845711776 L22.6696868,3.28050739 C23.0947959,3.71952621 23.0848827,4.42070399 22.6475331,4.84747154 C21.6282002,5.84657486 21.6089423,7.48449504 22.6045013,8.50740093 C23.5688036,9.49508617 25.2705986,9.51729235 26.2580326,8.55066249 C26.4683864,8.34424298 26.7662069,8.25989356 27.0462959,8.23436282 C27.3405488,8.23831445 27.6210784,8.35973577 27.8257148,8.57171787 L30.1761751,11.003189 C31.2920849,12.1477193 31.2717774,13.9821036 30.1308046,15.1015307 L14.7826312,30.173182 C14.2419177,30.7042473 13.5147281,31.0011635 12.7577154,30.9999683 Z M10.6010256,26.8472406 L12.2739059,28.5773626 C12.5413212,28.8364713 12.9644581,28.839883 13.2359971,28.5851199 L28.5808539,13.518157 C28.7108926,13.3906975 28.784987,13.2166085 28.7867855,13.0343093 C28.7885274,12.8550118 28.7187907,12.6824358 28.5930576,12.5548943 L26.9201347,10.8234936 C25.0132502,11.9682509 22.5716527,11.6505408 21.0195732,10.0556897 C19.4674936,8.46083872 19.2112152,6.00632605 20.40023,4.12391634 L18.726244,2.39490243 C18.4771532,2.14078862 18.0254474,2.13298873 17.7630473,2.38825337 L2.42150719,17.4564949 C2.29148649,17.5826958 2.21699081,17.7556251 2.21450103,17.9370253 C2.21201126,18.1184255 2.28173263,18.2933436 2.40824048,18.4230821 L4.08001528,20.1509878 C5.98622346,19.0071605 8.4264982,19.3245356 9.97836899,20.9181106 C11.5302398,22.5116856 11.7878461,24.9646931 10.6010256,26.8472406 Z M16.1539917,9.95966861 C16.4326568,9.67436738 16.8427202,9.56107263 17.2278589,9.66297421 C17.6129975,9.76487579 17.9138589,10.06627 18.0157497,10.4522603 C18.1176405,10.8382506 18.0048585,11.2493533 17.7203982,11.5288491 L11.5392622,17.725697 C11.1069693,18.1593202 10.4058365,18.1595683 9.97323833,17.7262511 C9.54064013,17.2929339 9.54039264,16.5901397 9.97268554,16.1565165 L16.1539917,9.95966861 Z M19.4619083,13.2744857 L19.4619083,13.2745283 C19.8946373,12.843774 20.5934327,12.8449894 21.0246678,13.2772463 C21.4559028,13.7095032 21.4571154,14.4099544 21.0273794,14.8437088 L14.8462859,21.0405567 C14.566967,21.3224874 14.1585743,21.4331908 13.7755682,21.3307973 C13.3925621,21.2284038 13.0934117,20.9285445 12.9912602,20.5446309 C12.8891088,20.1607173 12.9995505,19.7513569 13.2808148,19.4713762 L19.4619083,13.2744857 Z" id="形状结合"></path>
                    </g>
                </g>
            </g>
        </g>
    </g>
</svg>