<?xml version="1.0" encoding="UTF-8"?>
<svg width="26px" height="32px" viewBox="0 0 26 32" version="1.1" xmlns="http://www.w3.org/2000/svg" xmlns:xlink="http://www.w3.org/1999/xlink">
    <!-- Generator: Sketch 54.1 (76490) - https://sketchapp.com -->
    <title>编组 8</title>
    <desc>Created with Sketch.</desc>
    <defs>
        <circle id="path-1" cx="23" cy="23" r="23"></circle>
    </defs>
    <g id="页面-1" stroke="none" stroke-width="1" fill="none" fill-rule="evenodd">
        <g id="个人中心-会员" transform="translate(-57.000000, -364.000000)">
            <g id="编组-9" transform="translate(12.000000, 297.000000)">
                <g id="编组-8" transform="translate(35.000000, 60.000000)">
                    <g id="位图">
                        <mask id="mask-2" fill="white">
                            <use xlink:href="#path-1"></use>
                        </mask>
                        <g id="蒙版"></g>
                    </g>
                    <g id="订单-(1)" transform="translate(11.000000, 8.000000)">
                        <path d="M6.99600001,4.32893473 L6.99600001,3.62874595 C6.99600001,3.25555193 7.3002,2.95315676 7.67519999,2.95315676 L10.0458,2.95315676 C10.2562332,2.06207858 11.0525996,1.43324752 11.9682,1.43518101 C12.8835764,1.43352651 13.6796179,2.0622973 13.89,2.95315676 L16.26,2.95315676 C16.6356,2.95315676 16.9398,3.25555193 16.9398,3.62874595 L16.9398,6.17630521 C16.9398,6.54949923 16.6356,6.85189439 16.2606,6.85189439 L7.67519999,6.85189439 C7.49554215,6.85237241 7.3230528,6.78146286 7.19567796,6.65476517 C7.06830312,6.52806749 6.99647676,6.35596018 6.99600001,6.17630521 L6.99600001,4.32893473 Z" id="路径" fill="#C6EFCF"></path>
                        <path d="M20.886,4.49453211 L18.324,4.49453211 L18.324,3.62874595 C18.32257,3.11020417 18.1151631,2.6134777 17.747424,2.24788245 C17.3796849,1.8822872 16.8817496,1.67778354 16.3632,1.67937712 L14.838,1.67937712 C14.2702951,0.642726753 13.1819329,-0.00130644669 12,1.98991458e-06 C10.8180671,-0.00130644669 9.72970487,0.642726753 9.16199999,1.67937712 L7.67519999,1.67937712 C7.1567542,1.67794299 6.6589731,1.88251713 6.29136386,2.24809513 C5.92375462,2.61367312 5.7164302,3.11030843 5.71500001,3.62874595 L5.71500001,4.54553127 L3.1524,4.54553127 C1.43760002,4.52453161 0.028200014,5.88590984 0,7.59048257 L0,26.9035737 C0,27.7315604 0.332999986,28.5247477 0.925799995,29.1061385 C1.51929899,29.6883597 2.32046022,30.0098988 3.15179999,29.9995242 L20.886,29.9995242 C22.6062,29.9995242 24,28.6135463 24,26.9035737 L24,7.59048257 C24,5.88050991 22.6062,4.49453208 20.886,4.49453211 Z M6.99600001,4.32893473 L6.99600001,3.62874595 C6.99600001,3.25555193 7.3002,2.95315676 7.67519999,2.95315676 L10.0458,2.95315676 C10.2562332,2.06207858 11.0525996,1.43324752 11.9682,1.43518101 C12.8835764,1.43352651 13.6796179,2.0622973 13.89,2.95315676 L16.26,2.95315676 C16.6356,2.95315676 16.9398,3.25555193 16.9398,3.62874595 L16.9398,6.17630521 C16.9398,6.54949923 16.6356,6.85189439 16.2606,6.85189439 L7.67519999,6.85189439 C7.49554215,6.85237241 7.3230528,6.78146286 7.19567796,6.65476517 C7.06830312,6.52806749 6.99647676,6.35596018 6.99600001,6.17630521 L6.99600001,4.32893473 Z M5.076,11.9998121 L17.724,11.9998121 C17.8764306,11.9998121 18,12.1233795 18,12.2758076 L18,12.9237973 C18,13.0762254 17.8764306,13.1997929 17.724,13.1997929 L5.076,13.1997929 C4.92356943,13.1997928 4.80000004,13.0762254 4.80000002,12.9237973 L4.80000002,12.2758076 C4.80000004,12.1233795 4.92356943,11.9998121 5.076,11.9998121 Z M5.076,16.7997353 L17.724,16.7997353 C17.8764306,16.7997353 18,16.9233027 18,17.0757309 L18,17.7237205 C18,17.8761487 17.8764306,17.9997161 17.724,17.9997161 L5.076,17.9997161 C4.92356943,17.9997161 4.80000004,17.8761486 4.80000002,17.7237205 L4.80000002,17.0757309 C4.80000004,16.9233027 4.92356943,16.7997353 5.076,16.7997353 L5.076,16.7997353 Z M5.076,21.5996585 L17.724,21.5996585 C17.8764306,21.5996585 18,21.723226 18,21.8756541 L18,22.5236437 C18,22.6760719 17.8764306,22.7996393 17.724,22.7996393 L5.076,22.7996393 C4.92356941,22.7996393 4.80000002,22.6760719 4.80000002,22.5236437 L4.80000002,21.8756541 C4.80000002,21.723226 4.92356941,21.5996585 5.076,21.5996585 Z M22.7184,26.9035737 C22.7169699,27.3881171 22.5231102,27.8522466 22.179468,28.1938579 C21.8358259,28.5354691 21.3705512,28.7265788 20.886,28.7251446 L3.1524,28.7251446 C2.66784883,28.7265788 2.20257408,28.5354691 1.85893196,28.1938579 C1.51528985,27.8522466 1.32143007,27.3881171 1.32000002,26.9035737 L1.32000002,7.59048257 C1.32143008,7.10593914 1.51528986,6.64180967 1.85893198,6.30019841 C2.20257409,5.95858716 2.66784884,5.76747746 3.1524,5.76891172 L5.7144,5.76891172 L5.7144,6.17690517 C5.74561706,7.23636668 6.61526716,8.07806169 7.67519999,8.07467485 L16.3116,8.07467485 C17.3768759,8.08525939 18.2545982,7.24116544 18.2856,6.17630521 L18.2856,5.76831172 L20.8476,5.76831172 C21.3322548,5.7668776 21.7976203,5.95806959 22.1412797,6.29981053 C22.4849391,6.64155146 22.6787288,7.10583503 22.68,7.59048257 L22.7184,26.9035737 L22.7184,26.9035737 Z" id="形状" stroke="#32CC57" fill="#32CC57" fill-rule="nonzero"></path>
                    </g>
                </g>
            </g>
        </g>
    </g>
</svg>