<?xml version="1.0" encoding="UTF-8"?>
<svg width="31px" height="26px" viewBox="0 0 31 26" version="1.1" xmlns="http://www.w3.org/2000/svg" xmlns:xlink="http://www.w3.org/1999/xlink">
    <!-- Generator: Sketch 54.1 (76490) - https://sketchapp.com -->
    <title>钱包 (1)</title>
    <desc>Created with Sketch.</desc>
    <g id="页面-1" stroke="none" stroke-width="1" fill="none" fill-rule="evenodd">
        <g id="个人中心-非会员" transform="translate(-173.000000, -389.000000)" fill-rule="nonzero" stroke="#FB9F0E" stroke-width="0.5">
            <g id="编组-9" transform="translate(12.000000, 319.000000)">
                <g id="编组-7" transform="translate(153.000000, 60.000000)">
                    <g id="钱包-(1)" transform="translate(9.000000, 11.000000)">
                        <polygon id="路径-2" fill="#FDE4BA" points="27.5 7.86717091 17.6553708 7.86717091 15.2903289 11.9998578 17.6553708 16.034719 25.6590189 16.4246404 28.0595938 16.4246404"></polygon>
                        <path d="M26.9565954,6.98269183 L26.9565954,3.37633721 C26.9565954,2.60752745 26.5362559,2.03347905 26.159922,2.03347905 L2.83979229,2.03347905 L2.83979229,2.03319473 C2.46402988,2.03319473 2.04369032,2.60724313 2.04369032,3.37605288 L2.04369032,20.6239471 C2.04369032,21.3924725 2.46402988,21.966521 2.83979229,21.966521 L26.159922,21.966521 C26.5359701,21.966521 26.9565954,21.3924725 26.9565954,20.6239471 L26.9565954,17.253865 L19.1901721,17.253865 C16.6129849,17.253865 14.5161449,14.950279 14.5161449,12.1184206 C14.5161449,9.28656218 16.6126992,6.98269183 19.1901721,6.98269183 L26.9565954,6.98269183 Z M26.9565954,9.01588656 L19.1901721,9.01588656 C17.7397007,9.01588656 16.5595495,10.407364 16.5595495,12.1181363 C16.5595495,13.8286242 17.7397007,15.220386 19.1901721,15.220386 L26.9565954,15.220386 L26.9565954,9.01588656 Z M26.159922,24 L2.83979229,24 C1.27387744,24 0,22.485695 0,20.6242314 L0,3.37633721 C0,1.51487365 1.27387744,1.98951966e-13 2.83979229,1.98951966e-13 L26.159922,1.98951966e-13 C27.7258368,1.98951966e-13 29,1.51458933 29,3.37633721 L29,20.6242314 C29,22.485695 27.7258368,24 26.159922,24 Z M18.8381271,12.1184206 C18.8381271,11.4647158 19.3583109,10.9347834 19.9999901,10.9347834 C20.6416694,10.9347834 21.1618532,11.4647158 21.1618532,12.1184206 C21.1618532,12.7721254 20.6416694,13.3020578 19.9999901,13.3020578 C19.3583109,13.3020578 18.8381271,12.7721254 18.8381271,12.1184206 Z" id="形状结合" fill="#FB9F0E"></path>
                    </g>
                </g>
            </g>
        </g>
    </g>
</svg>